<?xml version="1.0" encoding="UTF-8" standalone="no"?>
<svg
   id="thumbnail"
   overflow="hidden"
   version="1.1"
   viewBox="0 0 895 591"
   sodipodi:docname="thumbnail.svg"
   inkscape:version="1.4.2 (f4327f4, 2025-05-13)"
   xmlns:inkscape="http://www.inkscape.org/namespaces/inkscape"
   xmlns:sodipodi="http://sodipodi.sourceforge.net/DTD/sodipodi-0.dtd"
   xmlns="http://www.w3.org/2000/svg"
   xmlns:svg="http://www.w3.org/2000/svg">
  <sodipodi:namedview
     id="namedview1"
     pagecolor="#505050"
     bordercolor="#ffffff"
     borderopacity="1"
     inkscape:showpageshadow="0"
     inkscape:pageopacity="0"
     inkscape:pagecheckerboard="1"
     inkscape:deskcolor="#d1d1d1"
     inkscape:zoom="0.96673821"
     inkscape:cx="401.34961"
     inkscape:cy="264.80799"
     inkscape:window-width="1920"
     inkscape:window-height="1010"
     inkscape:window-x="-6"
     inkscape:window-y="-6"
     inkscape:window-maximized="1"
     inkscape:current-layer="thumbnail"
     inkscape:lockguides="false"
     showguides="true" />
  <defs
     id="defs180">
    <linearGradient
       id="nameBGGradient"
       x1="610.75"
       x2="610.75"
       y1="440"
       y2="398"
       gradientUnits="userSpaceOnUse">
      <stop
         id="stop244"
         stop-color="#fff"
         stop-opacity=".93"
         offset=".13256" />
      <stop
         id="stop245"
         stop-color="#fff"
         stop-opacity="0"
         offset="1" />
    </linearGradient>
    <radialGradient
       id="typeBGGradient"
       cx="957"
       cy="1851"
       r="78.995"
       gradientUnits="userSpaceOnUse">
      <stop
         id="stop247"
         stop-color="#fff"
         stop-opacity=".93"
         offset=".73775" />
      <stop
         id="stop248"
         stop-color="#fff"
         stop-opacity="0"
         offset="1" />
    </radialGradient>
    <style
       id="style1">#flying-t,
.item-type,
.item-name {
    fill: #007a60;
}

.item-type,
.item-name,
.center-text {
    font-weight: bold;
}

.item-type,
.item-name {
    font-family: Arial, Helvetica, sans-serif;
    font-size: 55px;
}

.center-text {
    fill: #e46c0a;
    font-size: 41.2pt;
    font-family: Calibri, sans-serif;
text-align: center;
}</style>
  </defs>
  <rect
     id="item-name-bg"
     y="398"
     width="895"
     height="193"
     fill="url(#nameBGGradient)" />
  <circle
     id="type-bg"
     cx="957"
     cy="1851"
     r="79"
     fill="url(#typeBGGradient)"
     fill-rule="evenodd"
     transform="translate(-166,-1757)" />
  <path
     id="flying-t"
     d="m863.83 506.1c-1.0227 34.397-29.407 62.141-64.059 62.141-3.5811 0-7.0346-0.38242-10.358-0.89527v-0.12746c8.8222-15.217 20.843-35.544 32.351-54.982 2.5583-4.4763 4.4763-6.1364 8.8252-6.1364zm-128.12-0.12746c0.51285 20.33 10.358 37.978 25.444 49.355h0.12747c9.4625-16.494 17.135-29.923 26.725-46.414 0.89527-1.5356 0.51285-2.8133-1.1502-2.8133zm6.7767-30.815c10.613-20.84 32.224-35.161 57.158-35.161s46.672 14.321 57.158 35.161h-30.433c-3.836 0-6.9042 1.1502-8.8222 3.7085-0.63736-1.918-1.6631-3.7085-4.091-3.7085zm25.702 84.902c3.9635 2.17 8.1819 4.0909 12.661 5.3716l0.12746-0.25791c8.6947-14.704 23.143-39.252 35.547-60.223 3.4536-5.751 7.2866-7.9269 13.299-7.9269h33.501c-0.50989-4.8587-1.663-9.4596-3.1957-13.936h-34.399c-4.2184 0-8.4398 2.1729-10.995 5.754-0.25494-1.4081-0.64031-2.1729-1.0227-3.0712-0.89526-1.5326-1.7905-2.6858-4.2184-2.6858h-70.201c-1.5356 4.4763-2.6858 9.0801-3.1986 13.936h59.843c6.0089 0 4.0909 8.1848 1.0227 13.426-9.59 16.494-19.307 33.119-28.77 49.613z" />
  <text
     id="item-type"
     x="746"
     y="109"
     class="item-type">svc</text>
  <text
     id="item-name"
     x="34"
     y="527"
     class="item-name">Map
    Service Name</text>
  <text
     id="demo"
     x="373.38828"
     y="237.16576"
     class="center-text">DEMO</text>
  <text
     id="draft"
     x="370.1427"
     y="237.16576"
     class="center-text"
     sodipodi:insensitive="true">DRAFT</text>
  <text
     id="temporary"
     x="325.12042"
     y="232.29739"
     class="center-text">Temporary</text>
  <text
     id="deprecated"
     x="306.34439"
     y="233.57149"
     class="center-text">Deprectated</text>
  <text
     id="restricted-access"
     x="250.0565"
     y="238.13138"
     class="center-text">Restricted Access</text>
</svg>
