<?xml version="1.0" encoding="UTF-8" standalone="no"?>
<svg
   width="895"
   height="591"
   xml:space="preserve"
   overflow="hidden"
   version="1.1"
   id="svg182"
   sodipodi:docname="thumbnail.svg"
   inkscape:version="1.4.2 (f4327f4, 2025-05-13)"
   xmlns:inkscape="http://www.inkscape.org/namespaces/inkscape"
   xmlns:sodipodi="http://sodipodi.sourceforge.net/DTD/sodipodi-0.dtd"
   xmlns:xlink="http://www.w3.org/1999/xlink"
   xmlns="http://www.w3.org/2000/svg"
   xmlns:svg="http://www.w3.org/2000/svg"><sodipodi:namedview
     id="namedview182"
     pagecolor="#505050"
     bordercolor="#ffffff"
     borderopacity="1"
     inkscape:showpageshadow="0"
     inkscape:pageopacity="0"
     inkscape:pagecheckerboard="1"
     inkscape:deskcolor="#d1d1d1"
     inkscape:zoom="1.3671743"
     inkscape:cx="447.2729"
     inkscape:cy="295.5"
     inkscape:window-width="1920"
     inkscape:window-height="1010"
     inkscape:window-x="-6"
     inkscape:window-y="-6"
     inkscape:window-maximized="1"
     inkscape:current-layer="svg182" /><defs
     id="defs180"><linearGradient
       id="linearGradient247"
       inkscape:collect="always"><stop
         style="stop-color:#ffffff;stop-opacity:0.93000004;"
         offset="0.73775214"
         id="stop247" /><stop
         style="stop-color:#ffffff;stop-opacity:0;"
         offset="1"
         id="stop248" /></linearGradient><linearGradient
       id="linearGradient244"
       inkscape:collect="always"><stop
         style="stop-color:#ffffff;stop-opacity:0.93000004;"
         offset="0"
         id="stop244" /><stop
         style="stop-color:#ffffff;stop-opacity:0;"
         offset="1"
         id="stop245" /></linearGradient><linearGradient
       inkscape:collect="always"
       xlink:href="#linearGradient244"
       id="linearGradient245"
       x1="610.74878"
       y1="440"
       x2="610.74878"
       y2="398"
       gradientUnits="userSpaceOnUse" /><radialGradient
       inkscape:collect="always"
       xlink:href="#linearGradient247"
       id="radialGradient248"
       cx="957.41339"
       cy="1851.3552"
       fx="957.41339"
       fy="1851.3552"
       r="78.995049"
       gradientUnits="userSpaceOnUse" /></defs><rect
     width="895"
     height="193"
     x="0"
     y="398"
     id="text-bg"
     style="fill:url(#linearGradient245);fill-opacity:1" /><circle
     style="display:inline;fill:url(#radialGradient248);fill-rule:evenodd"
     id="path245"
     cx="957.41339"
     cy="1851.3552"
     r="78.995049"
     transform="translate(-166,-1757)" /><path
     id="flying-t"
     d="m 863.83257,506.10426 c -1.02273,34.39651 -29.40733,62.14081 -64.05879,62.14081 -3.58106,0 -7.03465,-0.38242 -10.35779,-0.89527 v -0.12746 c 8.8222,-15.21654 20.84305,-35.54377 32.35104,-54.98167 2.55831,-4.47631 4.47632,-6.13641 8.82516,-6.13641 z M 735.70905,505.9768 c 0.51285,20.3302 10.35779,37.97757 25.44387,49.35513 h 0.12747 c 9.46253,-16.49419 17.13452,-29.92315 26.72451,-46.41439 0.89527,-1.53558 0.51285,-2.81326 -1.1502,-2.81326 z m 6.77673,-30.81545 C 753.09851,454.32126 774.70934,440 799.64333,440 c 24.93399,0 46.67231,14.32126 57.15756,35.16135 h -30.43303 c -3.83601,0 -6.90421,1.15021 -8.8222,3.70853 -0.63736,-1.91801 -1.66306,-3.70853 -4.09095,-3.70853 z m 25.70178,84.90185 c 3.96346,2.16998 8.18188,4.09093 12.66117,5.37158 l 0.12746,-0.25791 c 8.69474,-14.70367 23.14346,-39.25227 35.54672,-60.2228 3.45359,-5.75104 7.28662,-7.92694 13.29853,-7.92694 h 33.50125 c -0.50989,-4.85874 -1.66305,-9.45956 -3.19567,-13.93588 h -34.39949 c -4.21841,0 -8.43978,2.17294 -10.99515,5.754 -0.25494,-1.40811 -0.64031,-2.17294 -1.02273,-3.07117 -0.89526,-1.53262 -1.79053,-2.6858 -4.2184,-2.6858 H 739.2901 c -1.53558,4.47632 -2.6858,9.08011 -3.19865,13.93589 h 59.84337 c 6.00894,0 4.09093,8.18484 1.02273,13.42599 -9.59,16.49421 -19.30747,33.11884 -28.76999,49.61304 z"
     style="display:inline;fill:#007a60;fill-opacity:1;stroke-width:2.96445" /><text
     fill="#007a60"
     font-family="Arial, Arial_MSFontService, sans-serif"
     font-weight="700"
     font-size="55px"
     id="item-type"
     transform="translate(747.025,118)"
     style="display:inline">svc</text><text
     fill="#007a60"
     font-family="Arial, Arial_MSFontService, sans-serif"
     font-weight="700"
     font-size="55px"
     id="item-name"
     transform="translate(33.996,527)"
     style="display:inline">Map Service Name</text></svg>
